<svg version="1.2" xmlns="http://www.w3.org/2000/svg" viewBox="0 0 1024 1024" width="1024" height="1024">
	<style>
		.s0 { fill: #090909 } 
		.s1 { fill: #00ddab } 
	</style>
	<path id="사각형 3" fill-rule="evenodd" class="s0" d="m236.76 51.76h550.48c102.17 0 185 82.83 185 185v550.48c0 102.17-82.83 185-185 185h-550.48c-102.17 0-185-82.83-185-185v-550.48c0-102.17 82.83-185 185-185z"/>
	<path id="사각형 2" fill-rule="evenodd" class="s1" d="m242.59 199.34h55.61c27.07 0 49 21.94 49 49v167.07h-64.14c-6.99 0-12.66 5.66-12.66 12.66 0 6.99 5.67 12.66 12.66 12.66h64.14v340.93c0 27.06-21.93 49-49 49h-55.61c-27.06 0-49-21.94-49-49v-123.18h64.15c6.99 0 12.66-5.66 12.66-12.66 0-6.99-5.67-12.66-12.66-12.66h-64.15v-384.82c0-27.06 21.94-49 49-49z"/>
	<path id="사각형 1" class="s1" d="m480.61 542.01h55.61c27.06 0 49 21.94 49 49v190.65c0 27.07-21.94 49-49 49h-55.61c-27.07 0-49-21.93-49-49v-190.65c0-27.06 21.93-49 49-49zm0-180.62h55.61c27.06 0 49 21.94 49 49v61.52c0 27.06-21.94 49-49 49h-55.61c-27.07 0-49-21.94-49-49v-61.52c0-27.06 21.93-49 49-49z"/>
	<path id="사각형 2" fill-rule="evenodd" class="s1" d="m714.4 309.06h55.61c27.06 0 49 21.94 49 49v423.6c0 27.07-21.94 49-49 49h-55.61c-27.06 0-49-21.93-49-49v-423.6c0-27.06 21.94-49 49-49zm27.81 275.99c0 7 5.67 12.66 12.66 12.66h51.48c6.99 0 12.66-5.66 12.66-12.66 0-6.99-5.67-12.66-12.66-12.66h-51.48c-6.99 0-12.66 5.67-12.66 12.66z"/>
</svg>